<svg width="17" height="14" viewBox="0 0 17 14" fill="none" xmlns="http://www.w3.org/2000/svg">
<path d="M15 0C15.3975 0 15.78 0.1575 16.0575 0.4425C16.3425 0.72 16.5 1.1025 16.5 1.5V9C16.5 9.3975 16.3425 9.78 16.0575 10.0575C15.78 10.3425 15.3975 10.5 15 10.5H4.5C4.1025 10.5 3.72 10.3425 3.4425 10.0575C3.1575 9.78 3 9.3975 3 9V1.5C3 1.1025 3.1575 0.72 3.4425 0.4425C3.72 0.1575 4.1025 0 4.5 0H15ZM1.5 12H12.75V13.5H1.5C1.1025 13.5 0.72 13.3425 0.4425 13.0575C0.1575 12.78 0 12.3975 0 12V3.75H1.5V12Z" fill="#282828"/>
</svg>
