<svg width="24" height="25" viewBox="0 0 24 25" fill="none" xmlns="http://www.w3.org/2000/svg">
<path d="M23.7229 0.291234C23.5878 0.156908 23.4171 0.0639048 23.2308 0.0231609C23.0446 -0.0175829 22.8506 -0.00437409 22.6717 0.0612345L0.646102 8.06123C0.45615 8.1332 0.292612 8.26118 0.177209 8.42819C0.0618062 8.59519 0 8.79331 0 8.99623C0 9.19916 0.0618062 9.39728 0.177209 9.56428C0.292612 9.73128 0.45615 9.85927 0.646102 9.93123L10.2573 13.7712L14.1017 23.3712C14.1739 23.5526 14.2978 23.7089 14.4579 23.8209C14.618 23.9328 14.8074 23.9955 15.0028 24.0012C15.2051 23.9971 15.4014 23.9318 15.5658 23.814C15.7302 23.6962 15.8551 23.5313 15.9238 23.3412L23.9331 1.34123C24.0013 1.16431 24.0178 0.971665 23.9806 0.785758C23.9433 0.599851 23.854 0.428345 23.7229 0.291234ZM15.0028 20.2012L12.2095 13.2012L17.0051 8.41123L15.5934 7.00123L10.7578 11.8312L3.78975 9.00123L21.3401 2.67123L15.0028 20.2012Z" fill="#C5C5C5"/>
</svg>
