<svg width="18" height="16" viewBox="0 0 18 16" fill="none" xmlns="http://www.w3.org/2000/svg">
<path d="M16.6441 5.63406L11.4879 4.90408L9.18288 0.352135C9.11993 0.227506 9.01636 0.126615 8.88842 0.0652895C8.56755 -0.0890138 8.17763 0.0395723 8.0172 0.352135L5.71223 4.90408L0.556004 5.63406C0.413847 5.65384 0.283875 5.71912 0.184366 5.81803C0.0640641 5.93848 -0.00222761 6.10053 5.7159e-05 6.26856C0.00234193 6.4366 0.0730162 6.59688 0.196551 6.71418L3.92715 10.2572L3.04578 15.2602C3.02511 15.3766 3.03833 15.4963 3.08394 15.6057C3.12955 15.7151 3.20573 15.8099 3.30383 15.8793C3.40193 15.9488 3.51804 15.99 3.63898 15.9984C3.75992 16.0068 3.88085 15.982 3.98807 15.9269L8.60004 13.5648L13.212 15.9269C13.3379 15.9922 13.4841 16.0139 13.6243 15.9902C13.9776 15.9308 14.2152 15.6044 14.1543 15.2602L13.2729 10.2572L17.0035 6.71418C17.1051 6.61724 17.1721 6.49064 17.1924 6.35216C17.2472 6.00597 16.9995 5.68549 16.6441 5.63406Z" fill="#FFB800"/>
</svg>
